<?xml version="1.0" encoding="UTF-8"?>
<svg xmlns="http://www.w3.org/2000/svg" version="1.1" viewBox="0 0 400 400">
  <defs>
    <style>
      .cls-1 {
        fill: #cec6b1;
      }

      .cls-2 {
        display: none;
      }

      .cls-2, .cls-3 {
        fill: #bd2f39;
      }

      .cls-4 {
        fill: #7c157f;
      }

      .cls-5 {
        fill: #f6f1de;
      }

      .cls-6 {
        fill: #131415;
      }

      .cls-7 {
        fill: #c21734;
      }
    </style>
  </defs>
  <!-- Generator: Adobe Illustrator 28.7.1, SVG Export Plug-In . SVG Version: 1.2.0 Build 142)  -->
  <g>
    <g id="Layer_1">
      <circle class="cls-5" cx="200" cy="200" r="165"/>
      <rect class="cls-6" x="69.98" y="67.23" width="226" height="202" rx="4.01" ry="4.01"/>
      <rect class="cls-5" x="90.93" y="74.86" width="199" height="69.72" rx="3.67" ry="3.67"/>
      <rect class="cls-7" x="76.1" y="73.5" width="9" height="189"/>
      <path class="cls-5" d="M0,0v400h400V0H0ZM200,365c-91.13,0-165-73.87-165-165S108.87,35,200,35s165,73.87,165,165-73.87,165-165,165Z"/>
      <path class="cls-6" d="M200,24C102.8,24,24,102.8,24,200s78.8,176,176,176,176-78.8,176-176S297.2,24,200,24ZM200,365c-91.13,0-165-73.87-165-165S108.87,35,200,35s165,73.87,165,165-73.87,165-165,165Z"/>
      <rect class="cls-5" x="91.25" y="150.38" width="198.68" height="112.12" rx="3.67" ry="3.67"/>
      <rect class="cls-6" x="96.07" y="80.62" width="189.5" height="58.2" rx="3.06" ry="3.06"/>
      <rect class="cls-6" x="96.05" y="155.69" width="189.52" height="101.5" rx="3.06" ry="3.06"/>
      <circle class="cls-3" cx="108" cy="100" r="2.5"/>
      <circle class="cls-4" cx="116" cy="100" r="2.5"/>
      <circle class="cls-4" cx="124" cy="100" r="2.5"/>
      <circle class="cls-4" cx="132" cy="100" r="2.5"/>
      <circle class="cls-3" cx="140" cy="100" r="2.5"/>
      <circle class="cls-3" cx="148" cy="100" r="2.5"/>
      <circle class="cls-3" cx="156" cy="100" r="2.5"/>
      <circle class="cls-4" cx="164" cy="100" r="2.5"/>
      <circle class="cls-4" cx="172" cy="100" r="2.5"/>
      <circle class="cls-4" cx="180" cy="100" r="2.5"/>
      <circle class="cls-3" cx="188" cy="100" r="2.5"/>
      <circle class="cls-3" cx="196" cy="100" r="2.5"/>
      <circle class="cls-3" cx="204" cy="100" r="2.5"/>
      <circle class="cls-4" cx="212" cy="100" r="2.5"/>
      <circle class="cls-4" cx="220" cy="100" r="2.5"/>
      <circle class="cls-4" cx="228" cy="100" r="2.5"/>
      <circle class="cls-3" cx="236" cy="100" r="2.5"/>
      <circle class="cls-3" cx="244" cy="100" r="2.5"/>
      <circle class="cls-3" cx="252" cy="100" r="2.5"/>
      <circle class="cls-4" cx="260" cy="100" r="2.5"/>
      <circle class="cls-4" cx="268" cy="100" r="2.5"/>
      <circle class="cls-4" cx="276" cy="100" r="2.5"/>
      <circle class="cls-3" cx="156" cy="110" r="2.5"/>
      <circle class="cls-4" cx="164" cy="110" r="2.5"/>
      <circle class="cls-4" cx="172" cy="110" r="2.5"/>
      <circle class="cls-4" cx="180" cy="110" r="2.5"/>
      <circle class="cls-2" cx="188" cy="110" r="2.5"/>
      <circle class="cls-3" cx="196" cy="110" r="2.5"/>
      <circle class="cls-3" cx="204" cy="110" r="2.5"/>
      <circle class="cls-4" cx="212" cy="110" r="2.5"/>
      <circle class="cls-4" cx="220" cy="110" r="2.5"/>
      <circle class="cls-4" cx="228" cy="110" r="2.5"/>
      <circle class="cls-3" cx="236" cy="110" r="2.5"/>
      <circle class="cls-3" cx="244" cy="110" r="2.5"/>
      <circle class="cls-3" cx="252" cy="110" r="2.5"/>
      <circle class="cls-4" cx="260" cy="110" r="2.5"/>
      <circle class="cls-4" cx="268" cy="110" r="2.5"/>
      <circle class="cls-4" cx="276" cy="110" r="2.5"/>
      <circle class="cls-5" cx="140" cy="110" r="2.5"/>
      <circle class="cls-5" cx="132" cy="110" r="2.5"/>
      <rect class="cls-5" x="106" y="107.5" width="12" height="5" rx="2.5" ry="2.5"/>
      <circle class="cls-5" cx="188" cy="90" r="2.5"/>
      <circle class="cls-5" cx="196" cy="90" r="2.5"/>
      <circle class="cls-5" cx="204" cy="90" r="2.5"/>
      <path class="cls-5" d="M212,87.5c1.38,0,2.5,1.12,2.5,2.5s-1.12,2.5-2.5,2.5-2.5-1.12-2.5-2.5,1.12-2.5,2.5-2.5"/>
      <circle class="cls-5" cx="220" cy="90" r="2.5"/>
      <circle class="cls-5" cx="228" cy="90" r="2.5"/>
      <circle class="cls-5" cx="236" cy="90" r="2.5"/>
      <circle class="cls-5" cx="244" cy="90" r="2.5"/>
      <circle class="cls-5" cx="252" cy="90" r="2.5"/>
      <circle class="cls-5" cx="260" cy="90" r="2.5"/>
      <path class="cls-5" d="M268,87.5c1.38,0,2.5,1.12,2.5,2.5s-1.12,2.5-2.5,2.5-2.5-1.12-2.5-2.5,1.12-2.5,2.5-2.5"/>
      <circle class="cls-5" cx="276" cy="90" r="2.5"/>
      <rect class="cls-3" x="105.5" y="120" width="5" height="10" rx="2.5" ry="2.5"/>
      <rect class="cls-4" x="113.5" y="120" width="5" height="10" rx="2.5" ry="2.5"/>
      <rect class="cls-4" x="121.5" y="120" width="5" height="10" rx="2.5" ry="2.5"/>
      <rect class="cls-4" x="129.5" y="120" width="5" height="10" rx="2.5" ry="2.5"/>
      <rect class="cls-3" x="137.5" y="120" width="5" height="10" rx="2.5" ry="2.5"/>
      <rect class="cls-3" x="145.5" y="120" width="5" height="10" rx="2.5" ry="2.5"/>
      <rect class="cls-3" x="153.5" y="120" width="5" height="10" rx="2.5" ry="2.5"/>
      <rect class="cls-4" x="161.5" y="120" width="5" height="10" rx="2.5" ry="2.5"/>
      <rect class="cls-4" x="169.5" y="120" width="5" height="10" rx="2.5" ry="2.5"/>
      <rect class="cls-4" x="177.5" y="120" width="5" height="10" rx="2.5" ry="2.5"/>
      <rect class="cls-3" x="185.5" y="120" width="5" height="10" rx="2.5" ry="2.5"/>
      <rect class="cls-3" x="193.5" y="120" width="5" height="10" rx="2.5" ry="2.5"/>
      <rect class="cls-3" x="201.5" y="120" width="5" height="10" rx="2.5" ry="2.5"/>
      <rect class="cls-4" x="209.5" y="120" width="5" height="10" rx="2.5" ry="2.5"/>
      <rect class="cls-4" x="217.5" y="120" width="5" height="10" rx="2.5" ry="2.5"/>
      <rect class="cls-4" x="225.5" y="120" width="5" height="10" rx="2.5" ry="2.5"/>
      <rect class="cls-3" x="233.5" y="120" width="5" height="10" rx="2.5" ry="2.5"/>
      <rect class="cls-3" x="241.5" y="120" width="5" height="10" rx="2.5" ry="2.5"/>
      <rect class="cls-3" x="249.5" y="120" width="5" height="10" rx="2.5" ry="2.5"/>
      <rect class="cls-4" x="257.5" y="120" width="5" height="10" rx="2.5" ry="2.5"/>
      <rect class="cls-4" x="265.5" y="120" width="5" height="10" rx="2.5" ry="2.5"/>
      <rect class="cls-4" x="273.5" y="120" width="5" height="10" rx="2.5" ry="2.5"/>
      <rect class="cls-7" x="104.5" y="163.22" width="6.5" height="86.44" transform="translate(215.5 412.88) rotate(180)"/>
      <rect class="cls-5" x="281.01" y="210.23" width="47.6" height="18"/>
      <rect class="cls-6" x="246.5" y="224.24" width="49.48" height="15.41" rx="3.82" ry="3.82"/>
      <rect class="cls-5" x="118.25" y="163.22" width="6.5" height="86.44" transform="translate(243 412.88) rotate(180)"/>
      <rect class="cls-6" x="177.5" y="227.29" width="151.11" height="42.25" rx="5.56" ry="5.56"/>
      <rect class="cls-5" x="182.5" y="230" width="138" height="32" rx="4.79" ry="4.79"/>
      <rect class="cls-6" x="190.43" y="236.74" width="67.07" height="5.8"/>
      <rect class="cls-6" x="190.43" y="246.76" width="67.07" height="5.8"/>
      <rect class="cls-6" x="270.5" y="236.74" width="5.5" height="20.45"/>
      <rect class="cls-6" x="281.01" y="236.74" width="5.5" height="20.45"/>
      <path class="cls-6" d="M316.25,215.16h-126.61c-5.22,0-9.43-4.04-9.31-8.95l2.18-90.16c.11-4.75,4.25-8.55,9.31-8.55h125.12c5.05,0,9.18,3.78,9.31,8.53l2.43,88.96c.13,4.92-7.18,10.18-12.42,10.18Z"/>
      <path class="cls-5" d="M314.53,210.23h-121.51c-3.85,0-6.93-3.17-6.82-7l2.53-83.64c.16-5.34,4.55-9.59,9.91-9.59h110.23c6,0,10.91,4.79,11.03,10.77l1.71,82.24c.08,3.96-3.11,7.21-7.09,7.21Z"/>
      <rect class="cls-6" x="193.52" y="116.19" width="120.77" height="88.39" rx="8.88" ry="8.88"/>
      <path class="cls-1" d="M293.06,195.23c-26.26,1.55-52.04,1.55-78.3,0-6.62-.42-12.97-6.23-13.62-12.8-1.41-14.66-1.41-29.42,0-44.09.66-6.56,7-12.37,13.62-12.8,26.26-1.55,52.04-1.55,78.3,0,6.62.42,12.97,6.23,13.62,12.8,1.41,14.66,1.41,29.42,0,44.09-.66,6.56-7,12.37-13.62,12.8Z"/>
      <g>
        <path d="M209.91,151.12c1.14,0,2.29-.02,3.43-.02-.11,3.88-.14,7.76-.11,11.65,0,1,.11,1.71.29,2.13.18.42.48.75.88,1,.41.25.9.38,1.47.38.6,0,1.12-.13,1.55-.41.43-.28.73-.63.89-1.06.16-.43.24-1.25.23-2.46-.02-3.75.01-7.51.1-11.26,1.14,0,2.29-.01,3.43-.02-.08,3.6-.11,7.2-.09,10.8,0,1.82-.08,3.09-.27,3.79-.19.71-.57,1.39-1.13,2.04-.56.65-1.21,1.14-1.95,1.45-.74.31-1.61.46-2.6.46-1.3,0-2.44-.32-3.42-.92-.98-.61-1.69-1.36-2.13-2.26-.43-.9-.67-2.42-.68-4.56-.02-3.57.02-7.14.13-10.71Z"/>
        <path d="M224.68,151.03c1.12,0,2.24-.01,3.36-.02.8,3.86,1.64,7.73,2.53,11.6,1.06-3.87,2.15-7.75,3.27-11.63.95,0,1.9,0,2.84,0,1.04,3.88,2.12,7.76,3.21,11.64.85-3.88,1.72-7.77,2.61-11.66,1.12,0,2.24,0,3.36,0-1.38,6.09-2.75,12.19-4.05,18.27-1.09,0-2.19,0-3.28,0-1.14-3.93-2.27-7.87-3.36-11.8-1.1,3.93-2.17,7.86-3.19,11.77-1.08,0-2.17,0-3.25-.01-1.46-6.07-2.83-12.12-4.07-18.16Z"/>
        <path d="M247.19,150.96c1.17,0,2.34,0,3.52,0,1.49,4.33,3.01,8.66,4.52,12.99,1.53-4.33,3.07-8.66,4.58-12.99,1.17,0,2.34,0,3.51,0-2.12,6.09-4.31,12.19-6.47,18.29-1.1,0-2.2,0-3.3,0-2.13-6.1-4.27-12.2-6.36-18.29Z"/>
        <path d="M267.8,150.97c1.11,0,2.22,0,3.33,0,1.43,4.25,2.85,8.49,4.22,12.72,1.43-4.24,2.82-8.47,4.15-12.69,1.11,0,2.22,0,3.33.01,1.12,6.06,2.13,12.11,3.01,18.15-1.1,0-2.2.01-3.31.02-.57-3.82-1.19-7.65-1.85-11.47-1.26,3.83-2.56,7.66-3.89,11.5-1,0-2.01,0-3.01.01-1.21-3.83-2.47-7.67-3.74-11.52-.65,3.84-1.32,7.69-2.01,11.53-1.11,0-2.22,0-3.33,0,1.08-6.09,2.13-12.19,3.11-18.27Z"/>
        <path d="M290.97,156.89c-1.11,0-2.23,0-3.34,0,.07-1.95.66-3.49,1.77-4.6,1.11-1.11,2.54-1.66,4.3-1.65,1.09,0,2.06.25,2.91.71.85.47,1.53,1.14,2.05,2.01.52.87.79,1.75.8,2.65.01,1.07-.28,2.21-.89,3.44-.61,1.23-1.72,2.69-3.36,4.37-.68.71-1.37,1.43-2.05,2.14,2.14,0,4.28-.02,6.41-.03-.02,1.05-.05,2.11-.08,3.16-4.15.03-8.3.06-12.44.08.01-.55.02-1.1.03-1.65,1.89-1.91,3.77-3.82,5.63-5.72,1.35-1.37,2.25-2.46,2.69-3.29.44-.83.66-1.58.65-2.25,0-.69-.25-1.27-.72-1.72-.47-.46-1.07-.69-1.79-.69-.73,0-1.34.27-1.82.81-.48.55-.73,1.29-.76,2.23Z"/>
      </g>
      <g>
        <path d="M114.92,291.42v20.95c0,6.75,3.47,8.75,7.26,8.75,4.35,0,7.08-2.36,7.08-8.75v-20.95h7.61v20.57c0,12.02-7.04,15.08-14.79,15.08s-14.77-3.2-14.77-14.94v-20.71h7.61Z"/>
        <path d="M143.39,326.58v-37.22h7.31v37.22h-7.31Z"/>
        <path d="M154.74,300.18h4.07v-7.15h7.31v7.15h5.17v5.49h-5.17v13.03c0,2,.61,2.78,2.79,2.78.41,0,1.12,0,1.66-.08v5.03c-1.45.49-3.44.5-4.91.5-5.15,0-6.85-2.75-6.85-7.37v-13.89h-4.07v-5.49Z"/>
        <path d="M181.12,314.94c0,3.3,1.66,6.53,5.3,6.53,3.04,0,3.91-1.22,4.6-2.82h7.31c-.94,3.23-3.82,8.54-12.11,8.54s-12.47-6.5-12.47-13.43c0-8.28,4.25-14.19,12.73-14.19,9.06,0,12.15,6.56,12.15,13.15,0,.89,0,1.47-.1,2.23h-17.42ZM191.32,310.45c-.05-3.07-1.28-5.66-4.84-5.66s-4.91,2.42-5.2,5.66h10.04Z"/>
        <path d="M210.23,316.27c.8,3.53,3.33,5.08,7.4,5.08s5.79-1.6,5.79-4.18c0-2.86-1.7-4.1-7.71-5.5-9.57-2.25-11.93-5.73-11.93-10.47,0-6.13,4.58-10.29,12.91-10.29,9.33,0,13.05,5.02,13.56,10.16h-7.66c-.37-2.16-1.56-4.51-6.1-4.51-3.08,0-4.95,1.27-4.95,3.77s1.49,3.44,7.17,4.75c10.23,2.41,12.47,6.21,12.47,11.17,0,6.42-4.86,10.82-14.15,10.82s-13.62-4.39-14.47-10.8h7.66Z"/>
        <path d="M261.32,313.33c0,7.99-4.78,13.86-13.14,13.86s-12.96-5.84-12.96-13.72,4.93-13.9,13.31-13.9c7.77,0,12.8,5.48,12.8,13.76ZM242.63,313.38c0,5.08,2.19,8.09,5.71,8.09s5.57-3.01,5.57-8.05c0-5.52-2.03-8.14-5.67-8.14-3.39,0-5.6,2.51-5.6,8.09Z"/>
        <path d="M267.37,326.58v-20.9h-3.85v-5.49h3.85v-2.32c0-5.45,2.71-9.02,8.42-9.02,1.21,0,2.74.11,3.4.31v5.77c-.41-.07-.96-.13-1.54-.13-2.16,0-2.96.79-2.96,3.62v1.77h4.62v5.49h-4.62v20.9h-7.31Z"/>
        <path d="M278.62,300.18h4.07v-7.15h7.31v7.15h5.17v5.49h-5.17v13.03c0,2,.61,2.78,2.79,2.78.41,0,1.12,0,1.66-.08v5.03c-1.45.49-3.44.5-4.91.5-5.15,0-6.85-2.75-6.85-7.37v-13.89h-4.07v-5.49Z"/>
      </g>
    </g>
  </g>
</svg>